# xmcd
#
# Track frame offsets:
#       150
#       16384
#       33857
#       44778
#       66534
#       80969
#       102990
#       115993
#       133391
#       147502
#       158850
#       170974
#       190954
#       209693
#
# Disc length: 2934 seconds
#
# Revision: 0
# Processed by: cddbd v1.5.1PL0 Copyright (c) Steve Scherf et al.
# Submitted via: CD-DA_X-Tractor v0.24
#
DISCID=e70b740e
DTITLE=Gary Allegretto - Throwin' Heat
DYEAR=2000
DGENRE=Blues
TTITLE0=Throwin' Heat
TTITLE1=You're The One
TTITLE2=Hip Shaking Woman
TTITLE3=The Blues In Every Key
TTITLE4=I Wish I Was In Heaven Sitting Down
TTITLE5=Top Of The List
TTITLE6=Waffle House Woman
TTITLE7=Sloppy Drunk
TTITLE8=You Think
TTITLE9=Blowin' Town
TTITLE10=Keep On Nagging
TTITLE11=Fool Moon Boogaloo
TTITLE12=Who's Been Talking
TTITLE13=Untrainable
EXTD=
EXTT0=
EXTT1=
EXTT2=
EXTT3=
EXTT4=
EXTT5=
EXTT6=
EXTT7=
EXTT8=
EXTT9=
EXTT10=
EXTT11=
EXTT12=
EXTT13=
PLAYORDER=
